{
  "accessors": [
    {
      "bufferView": 2,
      "componentType": 5126,
      "count": 3573,
      "max": [
        0.8497827053070068,
        3.5039010047912598,
        3.2375268936157227
      ],
      "min": [
        -0.8669481873512268,
        -0.10029280185699463,
        -1.66548752784729
      ],
      "type": "VEC3"
    },
    {
      "bufferView": 2,
      "byteOffset": 42876,
      "componentType": 5126,
      "count": 3573,
      "max": [
        0.99959796667099,
        1.0,
        1.0
      ],
      "min": [
        -0.9999499320983887,
        -0.9995487928390503,
        -1.0
      ],
      "type": "VEC3"
    },
    {
      "bufferView": 1,
      "componentType": 5126,
      "count": 3573,
      "max": [
        0.9979727268218994,
        0.998377799987793
      ],
      "min": [
        0.0,
        0.0
      ],
      "type": "VEC2"
    },
    {
      "bufferView": 0,
      "componentType": 5125,
      "count": 18300,
      "type": "SCALAR"
    }
  ],
  "asset": {
    "extras": {
      "author": "Nyilonelycompany (https://sketchfab.com/Nyilonelycompany)",
      "license": "CC-BY-NC-4.0 (http://creativecommons.org/licenses/by-nc/4.0/)",
      "source": "https://sketchfab.com/3d-models/american-bobtail-lowpoly-850e7edc9bd149ba8ea97be749ec416c",
      "title": "American Bobtail (LowPoly)"
    },
    "generator": "Sketchfab-15.25.0",
    "version": "2.0"
  },
  "bufferViews": [
    {
      "buffer": 0,
      "byteLength": 73200,
      "name": "floatBufferViews",
      "target": 34963
    },
    {
      "buffer": 0,
      "byteLength": 28584,
      "byteOffset": 73200,
      "byteStride": 8,
      "name": "floatBufferViews",
      "target": 34962
    },
    {
      "buffer": 0,
      "byteLength": 85752,
      "byteOffset": 101784,
      "byteStride": 12,
      "name": "floatBufferViews",
      "target": 34962
    }
  ],
  "buffers": [
    {
      "byteLength": 187536,
      "uri": "scene.bin"
    }
  ],
  "extensionsUsed": [
    "KHR_materials_specular"
  ],
  "images": [
    {
      "uri": "textures/American_bobtails_mat_baseColor.png"
    }
  ],
  "materials": [
    {
      "doubleSided": true,
      "extensions": {
        "KHR_materials_specular": {
          "specularColorFactor": [
            1.0,
            1.0,
            1.0
          ],
          "specularFactor": 0.0
        }
      },
      "name": "American_bobtails_mat",
      "pbrMetallicRoughness": {
        "baseColorTexture": {
          "index": 0
        },
        "metallicFactor": 0.0
      }
    }
  ],
  "meshes": [
    {
      "name": "Object_0",
      "primitives": [
        {
          "attributes": {
            "NORMAL": 1,
            "POSITION": 0,
            "TEXCOORD_0": 2
          },
          "indices": 3,
          "material": 0,
          "mode": 4
        }
      ]
    }
  ],
  "nodes": [
    {
      "children": [
        1
      ],
      "matrix": [
        0.2892839312553406,
        0.0,
        0.0,
        0.0,
        0.0,
        6.423393622675201e-17,
        -0.2892839312553406,
        0.0,
        0.0,
        0.2892839312553406,
        6.423393622675201e-17,
        0.0,
        0.0,
        0.0,
        0.0,
        1.0
      ],
      "name": "Sketchfab_model"
    },
    {
      "children": [
        2
      ],
      "name": "root"
    },
    {
      "children": [
        3
      ],
      "matrix": [
        1.0,
        0.0,
        0.0,
        0.0,
        0.0,
        2.220446049250313e-16,
        1.0,
        0.0,
        0.0,
        -1.0,
        2.220446049250313e-16,
        0.0,
        0.0,
        0.0,
        0.0,
        1.0
      ],
      "name": "GLTF_SceneRootNode"
    },
    {
      "children": [
        4
      ],
      "matrix": [
        0.55715411901474,
        0.0,
        -0.0,
        0.0,
        0.0,
        0.5565192416171422,
        -0.026591586318275497,
        0.0,
        0.0,
        0.026591586318275497,
        0.5565192416171422,
        0.0,
        0.0025715231895446777,
        -0.0006063971668481827,
        -0.0007839202880859375,
        1.0
      ],
      "name": "American_bobtails_2"
    },
    {
      "mesh": 0,
      "name": "Object_4"
    }
  ],
  "samplers": [
    {
      "magFilter": 9729,
      "minFilter": 9987,
      "wrapS": 10497,
      "wrapT": 10497
    }
  ],
  "scene": 0,
  "scenes": [
    {
      "name": "Sketchfab_Scene",
      "nodes": [
        0
      ]
    }
  ],
  "textures": [
    {
      "sampler": 0,
      "source": 0
    }
  ]
}
